<svg width="79" height="79" viewBox="0 0 79 79" fill="#000000" xmlns="http://www.w3.org/2000/svg">
<path d="M23.0664 6.19629L28.6279 19.8633C29.1406 21.123 30.5811 21.7285 31.8359 21.2061L31.8506 21.2012C33.1006 20.6885 33.7012 19.2578 33.1885 18.0029L27.627 4.33594C27.1143 3.07617 25.6738 2.4707 24.4189 2.99316L24.4043 2.99805C23.1592 3.51563 22.5586 4.94141 23.0664 6.19629ZM11.5576 15.0439L22.0166 25.5029C22.9736 26.46 24.5312 26.46 25.4883 25.5029L25.498 25.4932C26.4551 24.5361 26.4551 22.9785 25.498 22.0215L15.0391 11.5625C14.082 10.6055 12.5244 10.6055 11.5674 11.5625L11.5576 11.5723C10.6006 12.5293 10.6006 14.082 11.5576 15.0439ZM4.33106 27.4854L17.9346 33.2471C19.1797 33.7744 20.6103 33.1982 21.1475 31.958L21.167 31.9141C21.709 30.6641 21.123 29.2139 19.8682 28.6816L6.26465 22.9199C5.01953 22.3926 3.58887 22.9687 3.05176 24.209L3.03223 24.2529C2.49512 25.5029 3.07617 26.9531 4.33106 27.4854ZM2.45605 41.8799H17.1875C18.5449 41.8799 19.6436 40.7812 19.6436 39.4238C19.6436 38.0664 18.5449 36.9678 17.1875 36.9678H2.45605C1.09863 36.9678 0 38.0664 0 39.4238C0 40.7812 1.09863 41.8799 2.45605 41.8799ZM6.26465 55.8398L19.8682 50.0781C21.123 49.5459 21.7041 48.0957 21.167 46.8457L21.1475 46.8018C20.6103 45.5615 19.1797 44.9853 17.9346 45.5127L4.33106 51.2744C3.07617 51.8066 2.49512 53.2568 3.03223 54.5068L3.05176 54.5508C3.58887 55.791 5.02441 56.3672 6.26465 55.8398ZM15.0439 67.2021L25.5029 56.7432C26.46 55.7861 26.46 54.2285 25.5029 53.2715L25.4932 53.2617C24.5361 52.3047 22.9785 52.3047 22.0215 53.2617L11.5625 63.7207C10.6055 64.6777 10.6055 66.2353 11.5625 67.1924L11.5723 67.2021C12.5293 68.1592 14.082 68.1592 15.0439 67.2021ZM27.4854 74.4287L33.2471 60.8252C33.7744 59.5801 33.1982 58.1494 31.958 57.6123L31.9141 57.5928C30.6641 57.0508 29.2139 57.6367 28.6816 58.8916L22.9199 72.4951C22.3926 73.7402 22.9687 75.1709 24.209 75.708L24.2529 75.7275C25.5029 76.2646 26.9531 75.6836 27.4854 74.4287ZM41.8799 76.3037V61.5674C41.8799 60.21 40.7812 59.1113 39.4238 59.1113C38.0664 59.1113 36.9678 60.21 36.9678 61.5674V76.2988C36.9678 77.6562 38.0664 78.7549 39.4238 78.7549C40.7812 78.7598 41.8799 77.6611 41.8799 76.3037ZM55.6934 72.5635L50.1318 58.8965C49.6191 57.6367 48.1787 57.0312 46.9238 57.5537L46.9092 57.5586C45.6592 58.0713 45.0586 59.5019 45.5713 60.7568L51.1328 74.4238C51.6455 75.6836 53.0859 76.2891 54.3408 75.7666L54.3555 75.7617C55.6006 75.2441 56.2012 73.8184 55.6934 72.5635ZM67.2021 63.7158L56.7432 53.2617C55.7861 52.3047 54.2285 52.3047 53.2715 53.2617L53.2617 53.2715C52.3047 54.2285 52.3047 55.7861 53.2617 56.7432L63.7207 67.2021C64.6777 68.1592 66.2353 68.1592 67.1924 67.2021L67.2021 67.1924C68.1592 66.2305 68.1592 64.6777 67.2021 63.7158ZM74.4287 51.2744L60.8252 45.5127C59.5801 44.9853 58.1494 45.5615 57.6123 46.8018L57.5928 46.8457C57.0508 48.0957 57.6367 49.5459 58.8916 50.0781L72.4951 55.8398C73.7402 56.3672 75.1709 55.791 75.708 54.5508L75.7275 54.5068C76.2646 53.2568 75.6836 51.8066 74.4287 51.2744ZM76.3037 36.8799H61.5674C60.21 36.8799 59.1113 37.9785 59.1113 39.3359C59.1113 40.6934 60.21 41.792 61.5674 41.792H76.2988C77.6562 41.792 78.7549 40.6934 78.7549 39.3359C78.7598 37.9785 77.6611 36.8799 76.3037 36.8799ZM72.5635 23.0664L58.8965 28.6279C57.6367 29.1406 57.0312 30.5811 57.5537 31.8359L57.5586 31.8506C58.0713 33.1006 59.5019 33.7012 60.7568 33.1885L74.4238 27.627C75.6836 27.1143 76.2891 25.6738 75.7666 24.4189L75.7617 24.4043C75.2441 23.1592 73.8184 22.5586 72.5635 23.0664ZM63.7158 11.5576L53.2617 22.0166C52.3047 22.9736 52.3047 24.5312 53.2617 25.4883L53.2715 25.498C54.2285 26.4551 55.7861 26.4551 56.7432 25.498L67.2021 15.0391C68.1592 14.082 68.1592 12.5244 67.2021 11.5674L67.1924 11.5576C66.2305 10.6006 64.6777 10.6006 63.7158 11.5576ZM51.2744 4.33106L45.5127 17.9346C44.9853 19.1797 45.5615 20.6103 46.8018 21.1475L46.8457 21.167C48.0957 21.709 49.5459 21.123 50.0781 19.8682L55.8398 6.26465C56.3672 5.01953 55.791 3.58887 54.5508 3.05176L54.5068 3.03223C53.2568 2.49512 51.8066 3.07617 51.2744 4.33106ZM36.8799 2.45605V17.1875C36.8799 18.5449 37.9785 19.6436 39.3359 19.6436C40.6934 19.6436 41.792 18.5449 41.792 17.1875V2.45605C41.792 1.09863 40.6934 0 39.3359 0C37.9785 0 36.8799 1.09863 36.8799 2.45605Z" fill="black"/>
<path d="M23.0664 6.19629L28.6279 19.8633C29.1406 21.123 30.5811 21.7285 31.8359 21.2061L31.8506 21.2012C33.1006 20.6885 33.7012 19.2578 33.1885 18.0029L27.627 4.33594C27.1143 3.07617 25.6738 2.4707 24.4189 2.99316L24.4043 2.99805C23.1592 3.51563 22.5586 4.94141 23.0664 6.19629ZM11.5576 15.0439L22.0166 25.5029C22.9736 26.46 24.5312 26.46 25.4883 25.5029L25.498 25.4932C26.4551 24.5361 26.4551 22.9785 25.498 22.0215L15.0391 11.5625C14.082 10.6055 12.5244 10.6055 11.5674 11.5625L11.5576 11.5723C10.6006 12.5293 10.6006 14.082 11.5576 15.0439ZM4.33106 27.4854L17.9346 33.2471C19.1797 33.7744 20.6103 33.1982 21.1475 31.958L21.167 31.9141C21.709 30.6641 21.123 29.2139 19.8682 28.6816L6.26465 22.9199C5.01953 22.3926 3.58887 22.9687 3.05176 24.209L3.03223 24.2529C2.49512 25.5029 3.07617 26.9531 4.33106 27.4854ZM2.45605 41.8799H17.1875C18.5449 41.8799 19.6436 40.7812 19.6436 39.4238C19.6436 38.0664 18.5449 36.9678 17.1875 36.9678H2.45605C1.09863 36.9678 0 38.0664 0 39.4238C0 40.7812 1.09863 41.8799 2.45605 41.8799ZM6.26465 55.8398L19.8682 50.0781C21.123 49.5459 21.7041 48.0957 21.167 46.8457L21.1475 46.8018C20.6103 45.5615 19.1797 44.9853 17.9346 45.5127L4.33106 51.2744C3.07617 51.8066 2.49512 53.2568 3.03223 54.5068L3.05176 54.5508C3.58887 55.791 5.02441 56.3672 6.26465 55.8398ZM15.0439 67.2021L25.5029 56.7432C26.46 55.7861 26.46 54.2285 25.5029 53.2715L25.4932 53.2617C24.5361 52.3047 22.9785 52.3047 22.0215 53.2617L11.5625 63.7207C10.6055 64.6777 10.6055 66.2353 11.5625 67.1924L11.5723 67.2021C12.5293 68.1592 14.082 68.1592 15.0439 67.2021ZM27.4854 74.4287L33.2471 60.8252C33.7744 59.5801 33.1982 58.1494 31.958 57.6123L31.9141 57.5928C30.6641 57.0508 29.2139 57.6367 28.6816 58.8916L22.9199 72.4951C22.3926 73.7402 22.9687 75.1709 24.209 75.708L24.2529 75.7275C25.5029 76.2646 26.9531 75.6836 27.4854 74.4287ZM41.8799 76.3037V61.5674C41.8799 60.21 40.7812 59.1113 39.4238 59.1113C38.0664 59.1113 36.9678 60.21 36.9678 61.5674V76.2988C36.9678 77.6562 38.0664 78.7549 39.4238 78.7549C40.7812 78.7598 41.8799 77.6611 41.8799 76.3037ZM55.6934 72.5635L50.1318 58.8965C49.6191 57.6367 48.1787 57.0312 46.9238 57.5537L46.9092 57.5586C45.6592 58.0713 45.0586 59.5019 45.5713 60.7568L51.1328 74.4238C51.6455 75.6836 53.0859 76.2891 54.3408 75.7666L54.3555 75.7617C55.6006 75.2441 56.2012 73.8184 55.6934 72.5635ZM67.2021 63.7158L56.7432 53.2617C55.7861 52.3047 54.2285 52.3047 53.2715 53.2617L53.2617 53.2715C52.3047 54.2285 52.3047 55.7861 53.2617 56.7432L63.7207 67.2021C64.6777 68.1592 66.2353 68.1592 67.1924 67.2021L67.2021 67.1924C68.1592 66.2305 68.1592 64.6777 67.2021 63.7158ZM74.4287 51.2744L60.8252 45.5127C59.5801 44.9853 58.1494 45.5615 57.6123 46.8018L57.5928 46.8457C57.0508 48.0957 57.6367 49.5459 58.8916 50.0781L72.4951 55.8398C73.7402 56.3672 75.1709 55.791 75.708 54.5508L75.7275 54.5068C76.2646 53.2568 75.6836 51.8066 74.4287 51.2744ZM76.3037 36.8799H61.5674C60.21 36.8799 59.1113 37.9785 59.1113 39.3359C59.1113 40.6934 60.21 41.792 61.5674 41.792H76.2988C77.6562 41.792 78.7549 40.6934 78.7549 39.3359C78.7598 37.9785 77.6611 36.8799 76.3037 36.8799ZM72.5635 23.0664L58.8965 28.6279C57.6367 29.1406 57.0312 30.5811 57.5537 31.8359L57.5586 31.8506C58.0713 33.1006 59.5019 33.7012 60.7568 33.1885L74.4238 27.627C75.6836 27.1143 76.2891 25.6738 75.7666 24.4189L75.7617 24.4043C75.2441 23.1592 73.8184 22.5586 72.5635 23.0664ZM63.7158 11.5576L53.2617 22.0166C52.3047 22.9736 52.3047 24.5312 53.2617 25.4883L53.2715 25.498C54.2285 26.4551 55.7861 26.4551 56.7432 25.498L67.2021 15.0391C68.1592 14.082 68.1592 12.5244 67.2021 11.5674L67.1924 11.5576C66.2305 10.6006 64.6777 10.6006 63.7158 11.5576ZM51.2744 4.33106L45.5127 17.9346C44.9853 19.1797 45.5615 20.6103 46.8018 21.1475L46.8457 21.167C48.0957 21.709 49.5459 21.123 50.0781 19.8682L55.8398 6.26465C56.3672 5.01953 55.791 3.58887 54.5508 3.05176L54.5068 3.03223C53.2568 2.49512 51.8066 3.07617 51.2744 4.33106ZM36.8799 2.45605V17.1875C36.8799 18.5449 37.9785 19.6436 39.3359 19.6436C40.6934 19.6436 41.792 18.5449 41.792 17.1875V2.45605C41.792 1.09863 40.6934 0 39.3359 0C37.9785 0 36.8799 1.09863 36.8799 2.45605Z" fill="#E6941B"/>
<path d="M42.2754 35.0557C40.4297 35.0557 38.5889 35.0557 36.7432 35.0557H26.333C25.0928 35.0557 24.0869 36.0615 24.0869 37.3018V38.8301C24.0869 42.7607 27.2461 45.8272 31.0303 45.8906C34.9805 45.9541 38.208 42.707 38.208 38.7568V36.6182C38.501 36.3252 38.8916 36.1641 39.3457 36.1641C39.7998 36.1641 40.1904 36.3252 40.4834 36.6182V38.8301C40.4834 42.7998 43.7061 45.8906 47.5439 45.8906C51.3818 45.8906 54.6728 42.7022 54.6728 38.8301V37.3018C54.6728 36.0811 53.6816 35.085 52.4609 35.085C49.0625 35.0752 45.6689 35.0654 42.2754 35.0557Z" fill="#E6941B"/>
</svg>
